<svg xmlns="http://www.w3.org/2000/svg" width="512" height="512" style=""><rect id="backgroundrect" width="100%" height="100%" x="0" y="0" fill="none" stroke="none"/><!--! Font Awesome Pro 6.1.1 by @fontawesome - https://fontawesome.com License - https://fontawesome.com/license (Commercial License) Copyright 2022 Fonticons, Inc. --><g class="currentLayer" style=""><title>Layer 1</title><path d="M323.1007752418518,333.67441844940186 c0,8.844 -7.156,16 -16,16 h-96 C202.3007752418518,349.67441844940186 195.1007752418518,342.47441844940187 195.1007752418518,333.67441844940186 V285.67441844940186 H3.1007752418518066 v144 C3.1007752418518066,455.2744184494019 25.510775241851807,477.67441844940186 51.10077524185181,477.67441844940186 h416 c25.59,0 48,-22.41 48,-48 V285.67441844940186 h-192 V333.67441844940186 zM467.1007752418518,93.67441844940186 H387.1007752418518 V45.674418449401855 C387.1007752418518,20.084418449401856 364.70077524185183,-2.3255815505981445 339.1007752418518,-2.3255815505981445 h-160 C153.5007752418518,-2.3255815505981445 131.1007752418518,20.084418449401856 131.1007752418518,45.674418449401855 V93.67441844940186 H51.10077524185181 C25.510775241851807,93.67441844940186 3.1007752418518066,116.07441844940186 3.1007752418518066,141.67441844940186 V253.67441844940186 h512 V141.67441844940186 C515.1007752418518,116.07441844940186 492.70077524185183,93.67441844940186 467.1007752418518,93.67441844940186 zM339.1007752418518,93.67441844940186 h-160 V45.674418449401855 h160 V93.67441844940186 z" id="svg_1" class="selected" fill-opacity="1" fill="#bbbbbb"/></g></svg>