<svg xmlns="http://www.w3.org/2000/svg" width="576" height="512"><rect id="backgroundrect" width="100%" height="100%" x="0" y="0" fill="none" stroke="none"/><!--! Font Awesome Pro 6.1.1 by @fontawesome - https://fontawesome.com License - https://fontawesome.com/license (Commercial License) Copyright 2022 Fonticons, Inc. --><g class="currentLayer" style=""><title>Layer 1</title><path d="M578.1255815505981,253.9496123790741 C578.1255815505981,271.9496123790741 563.1255815505981,286.0496123790741 546.1255815505981,286.0496123790741 H514.1255815505981 L514.8255815505981,446.1496123790741 C514.8255815505981,448.9496123790741 514.6255815505981,451.5496123790741 514.3255815505981,454.2496123790741 V470.4496123790741 C514.3255815505981,492.5496123790741 496.42558155059817,510.4496123790741 474.32558155059814,510.4496123790741 H458.32558155059814 C457.2255815505981,510.4496123790741 456.12558155059816,509.5496123790741 455.02558155059813,510.3496123790741 C453.62558155059816,509.5496123790741 452.2255815505981,510.4496123790741 450.82558155059814,510.4496123790741 H394.32558155059814 C372.2255815505981,510.4496123790741 354.32558155059814,492.5496123790741 354.32558155059814,470.4496123790741 V382.4496123790741 C354.32558155059814,364.7496123790741 340.02558155059813,350.4496123790741 322.32558155059814,350.4496123790741 H258.32558155059814 C240.62558155059816,350.4496123790741 226.32558155059814,364.7496123790741 226.32558155059814,382.4496123790741 V470.4496123790741 C226.32558155059814,492.5496123790741 208.42558155059814,510.4496123790741 186.32558155059814,510.4496123790741 H130.42558155059814 C128.92558155059814,510.4496123790741 127.42558155059814,510.3496123790741 125.92558155059814,510.2496123790741 C124.72558155059815,510.3496123790741 123.52558155059815,510.4496123790741 122.32558155059814,510.4496123790741 H106.32558155059814 C84.23558155059814,510.4496123790741 66.32558155059814,492.5496123790741 66.32558155059814,470.4496123790741 V358.4496123790741 C66.32558155059814,357.5496123790741 66.35558155059815,356.5496123790741 66.41558155059815,355.6496123790741 V286.0496123790741 H34.37558155059814 C16.345581550598144,286.0496123790741 2.3255815505981445,271.9496123790741 2.3255815505981445,253.9496123790741 C2.3255815505981445,244.9496123790741 5.329581550598144,236.9496123790741 12.335581550598144,229.9496123790741 L268.7255815505981,6.465612379074097 C275.7255815505981,-0.5483876209259033 283.7255815505981,-1.5503876209259033 290.7255815505981,-1.5503876209259033 C297.7255815505981,-1.5503876209259033 305.7255815505981,0.4536123790740967 311.82558155059814,5.463612379074097 L567.1255815505981,229.9496123790741 C575.1255815505981,236.9496123790741 579.2255815505981,244.9496123790741 578.1255815505981,253.9496123790741 L578.1255815505981,253.9496123790741 z" id="svg_1" class="selected" fill-opacity="1" fill="#bbbbbb"/></g></svg>