<svg xmlns="http://www.w3.org/2000/svg" width="448" height="512"><rect id="backgroundrect" width="100%" height="100%" x="0" y="0" fill="none" stroke="none"/><!--! Font Awesome Pro 6.1.1 by @fontawesome - https://fontawesome.com License - https://fontawesome.com/license (Commercial License) Copyright 2022 Fonticons, Inc. --><g class="currentLayer" style=""><title>Layer 1</title><path d="M225.6503876209259,141 c-63.6,0 -114.9,51.3 -114.9,114.9 s51.3,114.9 114.9,114.9 S340.5503876209259,319.5 340.5503876209259,255.9 S289.2503876209259,141 225.6503876209259,141 zm0,189.6 c-41.1,0 -74.7,-33.5 -74.7,-74.7 s33.5,-74.7 74.7,-74.7 s74.7,33.5 74.7,74.7 s-33.6,74.7 -74.7,74.7 zm146.4,-194.3 c0,14.9 -12,26.8 -26.8,26.8 c-14.9,0 -26.8,-12 -26.8,-26.8 s12,-26.8 26.8,-26.8 s26.8,12 26.8,26.8 zm76.1,27.2 c-1.7000000000000002,-35.9 -9.9,-67.7 -36.2,-93.9 c-26.2,-26.2 -58,-34.4 -93.9,-36.2 c-37,-2.1 -147.9,-2.1 -184.9,0 c-35.8,1.7000000000000002 -67.6,9.9 -93.9,36.1 s-34.4,58 -36.2,93.9 c-2.1,37 -2.1,147.9 0,184.9 c1.7000000000000002,35.9 9.9,67.7 36.2,93.9 s58,34.4 93.9,36.2 c37,2.1 147.9,2.1 184.9,0 c35.9,-1.7000000000000002 67.7,-9.9 93.9,-36.2 c26.2,-26.2 34.4,-58 36.2,-93.9 c2.1,-37 2.1,-147.8 0,-184.8 zM400.3503876209259,388 c-7.8,19.6 -22.9,34.7 -42.6,42.6 c-29.5,11.7 -99.5,9 -132.1,9 s-102.7,2.6 -132.1,-9 c-19.6,-7.8 -34.7,-22.9 -42.6,-42.6 c-11.7,-29.5 -9,-99.5 -9,-132.1 s-2.6,-102.7 9,-132.1 c7.8,-19.6 22.9,-34.7 42.6,-42.6 c29.5,-11.7 99.5,-9 132.1,-9 s102.7,-2.6 132.1,9 c19.6,7.8 34.7,22.9 42.6,42.6 c11.7,29.5 9,99.5 9,132.1 s2.7,102.7 -9,132.1 z" id="svg_1" class="selected" fill-opacity="1" fill="#04b4e0"/></g></svg>